<?xml version="1.0" standalone="no"?>
<!DOCTYPE svg PUBLIC "-//W3C//DTD SVG 20010904//EN"
 "http://www.w3.org/TR/2001/REC-SVG-20010904/DTD/svg10.dtd">
<svg version="1.0" xmlns="http://www.w3.org/2000/svg"
 width="271.000000pt" height="271.000000pt" viewBox="0 0 271.000000 271.000000"
 preserveAspectRatio="xMidYMid meet">
<metadata>
Created by potrace 1.14, written by Peter Selinger 2001-2017
</metadata>
<g transform="translate(0.000000,271.000000) scale(0.100000,-0.100000)"
fill="#000000" stroke="none">
<path d="M1442 2286 c-4 -6 -8 -429 -7 -941 l0 -930 66 -3 65 -3 0 941 c0 517
-2 941 -5 941 -33 7 -113 3 -119 -5z"/>
<path d="M2125 2036 c-114 -22 -226 -90 -261 -159 -44 -83 -51 -192 -18 -289
23 -71 125 -170 288 -282 226 -154 271 -210 271 -337 0 -68 -3 -79 -29 -113
-16 -22 -49 -47 -74 -58 -86 -39 -223 -21 -290 36 -65 56 -124 191 -137 311
-9 83 -13 95 -36 95 -18 0 -19 -9 -20 -212 0 -117 -2 -230 -3 -250 -2 -33 1
-38 20 -38 17 0 23 8 28 34 8 44 28 51 78 25 139 -71 309 -92 472 -59 119 25
236 101 276 181 27 52 29 262 3 316 -31 66 -122 150 -285 264 -198 138 -245
180 -273 243 -18 40 -20 58 -14 104 9 68 32 100 89 130 85 43 205 21 272 -49
64 -66 114 -175 132 -283 6 -35 22 -54 35 -40 5 5 11 103 13 217 3 202 3 208
-16 205 -13 -2 -23 -15 -28 -35 -5 -18 -13 -35 -18 -38 -6 -4 -50 11 -98 33
-48 22 -96 43 -107 47 -34 12 -207 13 -270 1z"/>
<path d="M394 1515 c-109 -280 -212 -542 -230 -581 -31 -70 -94 -144 -121
-144 -7 0 -13 -8 -13 -18 0 -17 13 -18 182 -18 129 1 182 4 185 13 4 12 -7 16
-67 29 -113 23 -124 122 -38 348 l34 88 165 0 c90 0 175 -1 189 -1 24 -1 30
-13 89 -176 35 -96 64 -187 64 -201 0 -36 -24 -55 -76 -61 -31 -4 -47 -11 -50
-22 -4 -15 21 -17 293 -17 247 0 297 2 296 13 -1 8 -16 23 -34 33 -17 10 -38
30 -47 44 -14 20 -160 386 -219 546 -11 29 -230 595 -242 625 -2 6 -40 10 -83
10 l-79 0 -198 -510z m224 -50 c39 -104 69 -191 67 -193 -3 -4 -336 -4 -340 0
-2 2 147 393 171 448 5 10 11 2 20 -25 7 -22 44 -125 82 -230z"/>
</g>
</svg>
