<svg width="272" height="36" viewBox="0 0 272 36" fill="none" xmlns="http://www.w3.org/2000/svg">
<path d="M12.49 8.73L19.75 27.48C20.05 28.18 20.36 28.67 20.68 28.95C21.02 29.23 21.32 29.38 21.58 29.4V30C20.94 29.96 20.17 29.94 19.27 29.94C18.39 29.92 17.49 29.91 16.57 29.91C15.61 29.91 14.7 29.92 13.84 29.94C12.98 29.94 12.29 29.96 11.77 30V29.4C12.79 29.36 13.44 29.19 13.72 28.89C14 28.57 13.94 27.9 13.54 26.88L8.56 13.26L9.16 12.36L4.78 23.67C4.32 24.87 4.04 25.84 3.94 26.58C3.84 27.32 3.89 27.89 4.09 28.29C4.29 28.69 4.6 28.97 5.02 29.13C5.46 29.29 5.98 29.38 6.58 29.4V30C5.88 29.96 5.23 29.94 4.63 29.94C4.05 29.92 3.42 29.91 2.74 29.91C2.34 29.91 1.93 29.92 1.51 29.94C1.11 29.94 0.76 29.96 0.46 30V29.4C0.9 29.32 1.34 29.04 1.78 28.56C2.24 28.08 2.69 27.25 3.13 26.07L9.88 8.73C10.28 8.77 10.71 8.79 11.17 8.79C11.65 8.79 12.09 8.77 12.49 8.73ZM14.05 21.36V21.96H5.11L5.41 21.36H14.05ZM26.1006 4.26V35.85H23.9406V4.26H26.1006ZM37.4755 8.37C38.7155 8.37 39.6755 8.5 40.3555 8.76C41.0355 9 41.6155 9.26 42.0955 9.54C42.3355 9.68 42.5255 9.79 42.6655 9.87C42.8255 9.93 42.9755 9.96 43.1155 9.96C43.3155 9.96 43.4555 9.85 43.5355 9.63C43.6355 9.41 43.7155 9.08 43.7755 8.64H44.4655C44.4455 9.04 44.4155 9.51 44.3755 10.05C44.3555 10.59 44.3355 11.31 44.3155 12.21C44.3155 13.09 44.3155 14.26 44.3155 15.72H43.6255C43.5455 14.64 43.2955 13.6 42.8755 12.6C42.4555 11.6 41.8755 10.77 41.1355 10.11C40.4155 9.45 39.5255 9.12 38.4655 9.12C37.5455 9.12 36.7855 9.38 36.1855 9.9C35.5855 10.4 35.2855 11.12 35.2855 12.06C35.2855 12.82 35.4755 13.48 35.8555 14.04C36.2355 14.58 36.8055 15.13 37.5655 15.69C38.3455 16.25 39.3255 16.94 40.5055 17.76C41.4455 18.38 42.2855 19 43.0255 19.62C43.7655 20.24 44.3555 20.94 44.7955 21.72C45.2555 22.5 45.4855 23.44 45.4855 24.54C45.4855 25.86 45.1255 26.96 44.4055 27.84C43.6855 28.7 42.7355 29.35 41.5555 29.79C40.3755 30.21 39.0855 30.42 37.6855 30.42C36.3855 30.42 35.3455 30.3 34.5655 30.06C33.8055 29.82 33.1555 29.57 32.6155 29.31C32.1755 29.03 31.8355 28.89 31.5955 28.89C31.3955 28.89 31.2455 29 31.1455 29.22C31.0655 29.44 30.9955 29.77 30.9355 30.21H30.2455C30.2855 29.71 30.3055 29.13 30.3055 28.47C30.3255 27.79 30.3355 26.92 30.3355 25.86C30.3555 24.8 30.3655 23.45 30.3655 21.81H31.0555C31.1355 23.17 31.3555 24.44 31.7155 25.62C32.0955 26.8 32.6655 27.76 33.4255 28.5C34.2055 29.22 35.2355 29.58 36.5155 29.58C37.2355 29.58 37.8655 29.46 38.4055 29.22C38.9455 28.98 39.3755 28.63 39.6955 28.17C40.0155 27.69 40.1755 27.11 40.1755 26.43C40.1755 25.59 39.9855 24.86 39.6055 24.24C39.2255 23.62 38.7055 23.04 38.0455 22.5C37.3855 21.94 36.6155 21.38 35.7355 20.82C34.7955 20.2 33.9155 19.57 33.0955 18.93C32.2755 18.29 31.6155 17.58 31.1155 16.8C30.6355 16 30.3955 15.04 30.3955 13.92C30.3955 12.64 30.7255 11.59 31.3855 10.77C32.0455 9.95 32.9155 9.35 33.9955 8.97C35.0955 8.57 36.2555 8.37 37.4755 8.37Z" fill="#F1DBC7"/>
<path d="M56.125 29.5L52.165 18.325H54.07L57.31 27.865H56.935L60.16 18.325H62.065L58.105 29.5H56.125ZM65.3596 29.5V19.9H62.3896V18.325H70.0396V19.9H67.1146V29.5H65.3596ZM76.1139 29.68C75.3239 29.68 74.5889 29.535 73.9089 29.245C73.2389 28.955 72.6539 28.555 72.1539 28.045C71.6639 27.525 71.2789 26.915 70.9989 26.215C70.7189 25.515 70.5789 24.745 70.5789 23.905C70.5789 23.075 70.7139 22.31 70.9839 21.61C71.2639 20.9 71.6539 20.29 72.1539 19.78C72.6539 19.26 73.2389 18.86 73.9089 18.58C74.5789 18.29 75.3139 18.145 76.1139 18.145C76.9039 18.145 77.6089 18.28 78.2289 18.55C78.8589 18.82 79.3889 19.175 79.8189 19.615C80.2489 20.045 80.5589 20.515 80.7489 21.025L79.1589 21.775C78.9189 21.175 78.5339 20.69 78.0039 20.32C77.4839 19.94 76.8539 19.75 76.1139 19.75C75.3739 19.75 74.7189 19.925 74.1489 20.275C73.5789 20.625 73.1339 21.11 72.8139 21.73C72.5039 22.35 72.3489 23.075 72.3489 23.905C72.3489 24.735 72.5039 25.465 72.8139 26.095C73.1339 26.715 73.5789 27.2 74.1489 27.55C74.7189 27.89 75.3739 28.06 76.1139 28.06C76.8539 28.06 77.4839 27.875 78.0039 27.505C78.5339 27.135 78.9189 26.65 79.1589 26.05L80.7489 26.8C80.5589 27.3 80.2489 27.77 79.8189 28.21C79.3889 28.65 78.8589 29.005 78.2289 29.275C77.6089 29.545 76.9039 29.68 76.1139 29.68ZM87.8132 29.5V18.325H91.8782C92.6282 18.325 93.2882 18.465 93.8582 18.745C94.4382 19.015 94.8882 19.415 95.2082 19.945C95.5282 20.465 95.6882 21.09 95.6882 21.82C95.6882 22.54 95.5232 23.16 95.1932 23.68C94.8732 24.2 94.4282 24.6 93.8582 24.88C93.2882 25.16 92.6282 25.3 91.8782 25.3H89.5832V29.5H87.8132ZM89.5832 23.725H91.9232C92.3232 23.725 92.6732 23.645 92.9732 23.485C93.2732 23.325 93.5082 23.105 93.6782 22.825C93.8482 22.535 93.9332 22.195 93.9332 21.805C93.9332 21.415 93.8482 21.08 93.6782 20.8C93.5082 20.51 93.2732 20.29 92.9732 20.14C92.6732 19.98 92.3232 19.9 91.9232 19.9H89.5832V23.725ZM99.2481 29.68C98.6981 29.68 98.2131 29.585 97.7931 29.395C97.3831 29.195 97.0631 28.925 96.8331 28.585C96.6031 28.235 96.4881 27.825 96.4881 27.355C96.4881 26.915 96.5831 26.52 96.7731 26.17C96.9731 25.82 97.2781 25.525 97.6881 25.285C98.0981 25.045 98.6131 24.875 99.2331 24.775L102.053 24.31V25.645L99.5631 26.08C99.1131 26.16 98.7831 26.305 98.5731 26.515C98.3631 26.715 98.2581 26.975 98.2581 27.295C98.2581 27.605 98.3731 27.86 98.6031 28.06C98.8431 28.25 99.1481 28.345 99.5181 28.345C99.9781 28.345 100.378 28.245 100.718 28.045C101.068 27.845 101.338 27.58 101.528 27.25C101.718 26.91 101.813 26.535 101.813 26.125V24.04C101.813 23.64 101.663 23.315 101.363 23.065C101.073 22.805 100.683 22.675 100.193 22.675C99.7431 22.675 99.3481 22.795 99.0081 23.035C98.6781 23.265 98.4331 23.565 98.2731 23.935L96.8631 23.23C97.0131 22.83 97.2581 22.48 97.5981 22.18C97.9381 21.87 98.3331 21.63 98.7831 21.46C99.2431 21.29 99.7281 21.205 100.238 21.205C100.878 21.205 101.443 21.325 101.933 21.565C102.433 21.805 102.818 22.14 103.088 22.57C103.368 22.99 103.508 23.48 103.508 24.04V29.5H101.888V28.03L102.233 28.075C102.043 28.405 101.798 28.69 101.498 28.93C101.208 29.17 100.873 29.355 100.493 29.485C100.123 29.615 99.7081 29.68 99.2481 29.68ZM105.49 29.5V21.385H107.11V23.02L106.96 22.78C107.14 22.25 107.43 21.87 107.83 21.64C108.23 21.4 108.71 21.28 109.27 21.28H109.765V22.825H109.06C108.5 22.825 108.045 23 107.695 23.35C107.355 23.69 107.185 24.18 107.185 24.82V29.5H105.49ZM110.925 29.5V21.385H112.62V29.5H110.925ZM110.925 20.275V18.325H112.62V20.275H110.925ZM117.601 29.68C116.771 29.68 116.041 29.475 115.411 29.065C114.791 28.655 114.356 28.105 114.106 27.415L115.411 26.8C115.631 27.26 115.931 27.625 116.311 27.895C116.701 28.165 117.131 28.3 117.601 28.3C118.001 28.3 118.326 28.21 118.576 28.03C118.826 27.85 118.951 27.605 118.951 27.295C118.951 27.095 118.896 26.935 118.786 26.815C118.676 26.685 118.536 26.58 118.366 26.5C118.206 26.42 118.041 26.36 117.871 26.32L116.596 25.96C115.896 25.76 115.371 25.46 115.021 25.06C114.681 24.65 114.511 24.175 114.511 23.635C114.511 23.145 114.636 22.72 114.886 22.36C115.136 21.99 115.481 21.705 115.921 21.505C116.361 21.305 116.856 21.205 117.406 21.205C118.146 21.205 118.806 21.39 119.386 21.76C119.966 22.12 120.376 22.625 120.616 23.275L119.311 23.89C119.151 23.5 118.896 23.19 118.546 22.96C118.206 22.73 117.821 22.615 117.391 22.615C117.021 22.615 116.726 22.705 116.506 22.885C116.286 23.055 116.176 23.28 116.176 23.56C116.176 23.75 116.226 23.91 116.326 24.04C116.426 24.16 116.556 24.26 116.716 24.34C116.876 24.41 117.041 24.47 117.211 24.52L118.531 24.91C119.201 25.1 119.716 25.4 120.076 25.81C120.436 26.21 120.616 26.69 120.616 27.25C120.616 27.73 120.486 28.155 120.226 28.525C119.976 28.885 119.626 29.17 119.176 29.38C118.726 29.58 118.201 29.68 117.601 29.68ZM128.709 29.68C127.899 29.68 127.179 29.495 126.549 29.125C125.929 28.745 125.444 28.235 125.094 27.595C124.744 26.945 124.569 26.22 124.569 25.42C124.569 24.6 124.744 23.875 125.094 23.245C125.454 22.615 125.934 22.12 126.534 21.76C127.134 21.39 127.814 21.205 128.574 21.205C129.184 21.205 129.729 21.31 130.209 21.52C130.689 21.73 131.094 22.02 131.424 22.39C131.754 22.75 132.004 23.165 132.174 23.635C132.354 24.105 132.444 24.605 132.444 25.135C132.444 25.265 132.439 25.4 132.429 25.54C132.419 25.68 132.399 25.81 132.369 25.93H125.904V24.58H131.409L130.599 25.195C130.699 24.705 130.664 24.27 130.494 23.89C130.334 23.5 130.084 23.195 129.744 22.975C129.414 22.745 129.024 22.63 128.574 22.63C128.124 22.63 127.724 22.745 127.374 22.975C127.024 23.195 126.754 23.515 126.564 23.935C126.374 24.345 126.299 24.845 126.339 25.435C126.289 25.985 126.364 26.465 126.564 26.875C126.774 27.285 127.064 27.605 127.434 27.835C127.814 28.065 128.244 28.18 128.724 28.18C129.214 28.18 129.629 28.07 129.969 27.85C130.319 27.63 130.594 27.345 130.794 26.995L132.174 27.67C132.014 28.05 131.764 28.395 131.424 28.705C131.094 29.005 130.694 29.245 130.224 29.425C129.764 29.595 129.259 29.68 128.709 29.68ZM137.608 29.59C136.758 29.59 136.098 29.35 135.628 28.87C135.158 28.39 134.923 27.715 134.923 26.845V22.915H133.498V21.385H133.723C134.103 21.385 134.398 21.275 134.608 21.055C134.818 20.835 134.923 20.535 134.923 20.155V19.525H136.618V21.385H138.463V22.915H136.618V26.77C136.618 27.05 136.663 27.29 136.753 27.49C136.843 27.68 136.988 27.83 137.188 27.94C137.388 28.04 137.648 28.09 137.968 28.09C138.048 28.09 138.138 28.085 138.238 28.075C138.338 28.065 138.433 28.055 138.523 28.045V29.5C138.383 29.52 138.228 29.54 138.058 29.56C137.888 29.58 137.738 29.59 137.608 29.59ZM142.8 29.5V18.145H144.495V29.5H142.8ZM147.091 22.24L146.866 18.325H148.441L148.216 22.24H147.091ZM150.977 29.5V18.325H152.747V29.5H150.977ZM149.102 16.84L150.872 14.44H152.852L154.637 16.84H152.897L151.862 15.475L150.842 16.84H149.102ZM154.899 29.5V18.145H156.594V29.5H154.899ZM162.386 29.68C161.576 29.68 160.856 29.495 160.226 29.125C159.606 28.745 159.121 28.235 158.771 27.595C158.421 26.945 158.246 26.22 158.246 25.42C158.246 24.6 158.421 23.875 158.771 23.245C159.131 22.615 159.611 22.12 160.211 21.76C160.811 21.39 161.491 21.205 162.251 21.205C162.861 21.205 163.406 21.31 163.886 21.52C164.366 21.73 164.771 22.02 165.101 22.39C165.431 22.75 165.681 23.165 165.851 23.635C166.031 24.105 166.121 24.605 166.121 25.135C166.121 25.265 166.116 25.4 166.106 25.54C166.096 25.68 166.076 25.81 166.046 25.93H159.581V24.58H165.086L164.276 25.195C164.376 24.705 164.341 24.27 164.171 23.89C164.011 23.5 163.761 23.195 163.421 22.975C163.091 22.745 162.701 22.63 162.251 22.63C161.801 22.63 161.401 22.745 161.051 22.975C160.701 23.195 160.431 23.515 160.241 23.935C160.051 24.345 159.976 24.845 160.016 25.435C159.966 25.985 160.041 26.465 160.241 26.875C160.451 27.285 160.741 27.605 161.111 27.835C161.491 28.065 161.921 28.18 162.401 28.18C162.891 28.18 163.306 28.07 163.646 27.85C163.996 27.63 164.271 27.345 164.471 26.995L165.851 27.67C165.691 28.05 165.441 28.395 165.101 28.705C164.771 29.005 164.371 29.245 163.901 29.425C163.441 29.595 162.936 29.68 162.386 29.68ZM174.147 29.68C173.367 29.68 172.667 29.495 172.047 29.125C171.437 28.745 170.952 28.235 170.592 27.595C170.242 26.955 170.067 26.235 170.067 25.435C170.067 24.635 170.247 23.915 170.607 23.275C170.967 22.635 171.452 22.13 172.062 21.76C172.672 21.39 173.362 21.205 174.132 21.205C174.782 21.205 175.357 21.335 175.857 21.595C176.357 21.855 176.752 22.215 177.042 22.675L176.787 23.065V18.145H178.467V29.5H176.862V27.85L177.057 28.165C176.777 28.655 176.377 29.03 175.857 29.29C175.337 29.55 174.767 29.68 174.147 29.68ZM174.312 28.105C174.782 28.105 175.202 27.99 175.572 27.76C175.952 27.53 176.247 27.215 176.457 26.815C176.677 26.405 176.787 25.945 176.787 25.435C176.787 24.925 176.677 24.47 176.457 24.07C176.247 23.67 175.952 23.355 175.572 23.125C175.202 22.895 174.782 22.78 174.312 22.78C173.842 22.78 173.417 22.895 173.037 23.125C172.657 23.355 172.362 23.67 172.152 24.07C171.942 24.47 171.837 24.925 171.837 25.435C171.837 25.945 171.942 26.405 172.152 26.815C172.362 27.215 172.652 27.53 173.022 27.76C173.402 27.99 173.832 28.105 174.312 28.105ZM184.256 29.68C183.446 29.68 182.726 29.495 182.096 29.125C181.476 28.745 180.991 28.235 180.641 27.595C180.291 26.945 180.116 26.22 180.116 25.42C180.116 24.6 180.291 23.875 180.641 23.245C181.001 22.615 181.481 22.12 182.081 21.76C182.681 21.39 183.361 21.205 184.121 21.205C184.731 21.205 185.276 21.31 185.756 21.52C186.236 21.73 186.641 22.02 186.971 22.39C187.301 22.75 187.551 23.165 187.721 23.635C187.901 24.105 187.991 24.605 187.991 25.135C187.991 25.265 187.986 25.4 187.976 25.54C187.966 25.68 187.946 25.81 187.916 25.93H181.451V24.58H186.956L186.146 25.195C186.246 24.705 186.211 24.27 186.041 23.89C185.881 23.5 185.631 23.195 185.291 22.975C184.961 22.745 184.571 22.63 184.121 22.63C183.671 22.63 183.271 22.745 182.921 22.975C182.571 23.195 182.301 23.515 182.111 23.935C181.921 24.345 181.846 24.845 181.886 25.435C181.836 25.985 181.911 26.465 182.111 26.875C182.321 27.285 182.611 27.605 182.981 27.835C183.361 28.065 183.791 28.18 184.271 28.18C184.761 28.18 185.176 28.07 185.516 27.85C185.866 27.63 186.141 27.345 186.341 26.995L187.721 27.67C187.561 28.05 187.311 28.395 186.971 28.705C186.641 29.005 186.241 29.245 185.771 29.425C185.311 29.595 184.806 29.68 184.256 29.68ZM192.432 29.5V18.325H199.707V19.9H194.202V23.26H199.107V24.835H194.202V29.5H192.432ZM200.573 29.5V21.385H202.193V23.02L202.043 22.78C202.223 22.25 202.513 21.87 202.913 21.64C203.313 21.4 203.793 21.28 204.353 21.28H204.848V22.825H204.143C203.583 22.825 203.128 23 202.778 23.35C202.438 23.69 202.268 24.18 202.268 24.82V29.5H200.573ZM208.438 29.68C207.888 29.68 207.403 29.585 206.983 29.395C206.573 29.195 206.253 28.925 206.023 28.585C205.793 28.235 205.678 27.825 205.678 27.355C205.678 26.915 205.773 26.52 205.963 26.17C206.163 25.82 206.468 25.525 206.878 25.285C207.288 25.045 207.803 24.875 208.423 24.775L211.243 24.31V25.645L208.753 26.08C208.303 26.16 207.973 26.305 207.763 26.515C207.553 26.715 207.448 26.975 207.448 27.295C207.448 27.605 207.563 27.86 207.793 28.06C208.033 28.25 208.338 28.345 208.708 28.345C209.168 28.345 209.568 28.245 209.908 28.045C210.258 27.845 210.528 27.58 210.718 27.25C210.908 26.91 211.003 26.535 211.003 26.125V24.04C211.003 23.64 210.853 23.315 210.553 23.065C210.263 22.805 209.873 22.675 209.383 22.675C208.933 22.675 208.538 22.795 208.198 23.035C207.868 23.265 207.623 23.565 207.463 23.935L206.053 23.23C206.203 22.83 206.448 22.48 206.788 22.18C207.128 21.87 207.523 21.63 207.973 21.46C208.433 21.29 208.918 21.205 209.428 21.205C210.068 21.205 210.633 21.325 211.123 21.565C211.623 21.805 212.008 22.14 212.278 22.57C212.558 22.99 212.698 23.48 212.698 24.04V29.5H211.078V28.03L211.423 28.075C211.233 28.405 210.988 28.69 210.688 28.93C210.398 29.17 210.063 29.355 209.683 29.485C209.313 29.615 208.898 29.68 208.438 29.68ZM214.679 29.5V21.385H216.299V22.975L216.104 22.765C216.304 22.255 216.624 21.87 217.064 21.61C217.504 21.34 218.014 21.205 218.594 21.205C219.194 21.205 219.724 21.335 220.184 21.595C220.644 21.855 221.004 22.215 221.264 22.675C221.524 23.135 221.654 23.665 221.654 24.265V29.5H219.974V24.715C219.974 24.305 219.899 23.96 219.749 23.68C219.599 23.39 219.384 23.17 219.104 23.02C218.834 22.86 218.524 22.78 218.174 22.78C217.824 22.78 217.509 22.86 217.229 23.02C216.959 23.17 216.749 23.39 216.599 23.68C216.449 23.97 216.374 24.315 216.374 24.715V29.5H214.679ZM227.324 29.68C226.514 29.68 225.794 29.495 225.164 29.125C224.544 28.745 224.049 28.235 223.679 27.595C223.319 26.955 223.139 26.23 223.139 25.42C223.139 24.62 223.319 23.9 223.679 23.26C224.039 22.62 224.534 22.12 225.164 21.76C225.794 21.39 226.514 21.205 227.324 21.205C227.874 21.205 228.389 21.305 228.869 21.505C229.349 21.695 229.764 21.96 230.114 22.3C230.474 22.64 230.739 23.035 230.909 23.485L229.424 24.175C229.254 23.755 228.979 23.42 228.599 23.17C228.229 22.91 227.804 22.78 227.324 22.78C226.864 22.78 226.449 22.895 226.079 23.125C225.719 23.345 225.434 23.66 225.224 24.07C225.014 24.47 224.909 24.925 224.909 25.435C224.909 25.945 225.014 26.405 225.224 26.815C225.434 27.215 225.719 27.53 226.079 27.76C226.449 27.99 226.864 28.105 227.324 28.105C227.814 28.105 228.239 27.98 228.599 27.73C228.969 27.47 229.244 27.125 229.424 26.695L230.909 27.4C230.749 27.83 230.489 28.22 230.129 28.57C229.779 28.91 229.364 29.18 228.884 29.38C228.404 29.58 227.884 29.68 227.324 29.68ZM236.375 29.68C235.565 29.68 234.845 29.495 234.215 29.125C233.595 28.745 233.11 28.235 232.76 27.595C232.41 26.945 232.235 26.22 232.235 25.42C232.235 24.6 232.41 23.875 232.76 23.245C233.12 22.615 233.6 22.12 234.2 21.76C234.8 21.39 235.48 21.205 236.24 21.205C236.85 21.205 237.395 21.31 237.875 21.52C238.355 21.73 238.76 22.02 239.09 22.39C239.42 22.75 239.67 23.165 239.84 23.635C240.02 24.105 240.11 24.605 240.11 25.135C240.11 25.265 240.105 25.4 240.095 25.54C240.085 25.68 240.065 25.81 240.035 25.93H233.57V24.58H239.075L238.265 25.195C238.365 24.705 238.33 24.27 238.16 23.89C238 23.5 237.75 23.195 237.41 22.975C237.08 22.745 236.69 22.63 236.24 22.63C235.79 22.63 235.39 22.745 235.04 22.975C234.69 23.195 234.42 23.515 234.23 23.935C234.04 24.345 233.965 24.845 234.005 25.435C233.955 25.985 234.03 26.465 234.23 26.875C234.44 27.285 234.73 27.605 235.1 27.835C235.48 28.065 235.91 28.18 236.39 28.18C236.88 28.18 237.295 28.07 237.635 27.85C237.985 27.63 238.26 27.345 238.46 26.995L239.84 27.67C239.68 28.05 239.43 28.395 239.09 28.705C238.76 29.005 238.36 29.245 237.89 29.425C237.43 29.595 236.925 29.68 236.375 29.68Z" fill="white"/>
</svg>
